<svg width="30" height="30" viewBox="0 0 30 30" fill="none" xmlns="http://www.w3.org/2000/svg">
<path d="M9.87502 8.00002C9.50418 8.00002 9.14167 8.10999 8.83333 8.31602C8.52498 8.52204 8.28466 8.81488 8.14275 9.15749C8.00083 9.5001 7.9637 9.8771 8.03605 10.2408C8.1084 10.6045 8.28697 10.9386 8.5492 11.2008C8.81142 11.4631 9.14551 11.6416 9.50923 11.714C9.87294 11.7863 10.2499 11.7492 10.5926 11.6073C10.9352 11.4654 11.228 11.2251 11.434 10.9167C11.6401 10.6084 11.75 10.2459 11.75 9.87502C11.75 9.37774 11.5525 8.90083 11.2008 8.5492C10.8492 8.19756 10.3723 8.00002 9.87502 8.00002ZM26.9 13.8875L16.3875 3.36252C16.2707 3.24667 16.1322 3.15501 15.9799 3.09281C15.8276 3.0306 15.6645 2.99907 15.5 3.00002H4.25002C3.9185 3.00002 3.60056 3.13172 3.36614 3.36614C3.13172 3.60056 3.00002 3.9185 3.00002 4.25002V15.5C2.99907 15.6645 3.0306 15.8276 3.09281 15.9799C3.15501 16.1322 3.24667 16.2707 3.36252 16.3875L13.8875 26.9C14.5906 27.6023 15.5438 27.9967 16.5375 27.9967C17.5313 27.9967 18.4844 27.6023 19.1875 26.9L26.9 19.25C27.6023 18.5469 27.9967 17.5938 27.9967 16.6C27.9967 15.6063 27.6023 14.6531 26.9 13.95V13.8875ZM25.1375 17.4125L17.4125 25.125C17.1783 25.3578 16.8615 25.4885 16.5313 25.4885C16.201 25.4885 15.8842 25.3578 15.65 25.125L5.50002 14.9875V5.50002H14.9875L25.1375 15.65C25.2534 15.7668 25.345 15.9053 25.4072 16.0576C25.4694 16.2099 25.501 16.373 25.5 16.5375C25.4986 16.8654 25.3685 17.1797 25.1375 17.4125Z" fill="black"/>
</svg>
