<svg width="20" height="16" viewBox="0 0 20 16" fill="none" xmlns="http://www.w3.org/2000/svg">
<path d="M18.9009 14.3646L15.5 11.578C16.8201 10.2183 17.4594 8.49242 17.2864 6.7553C17.1135 5.01818 16.1414 3.40182 14.5701 2.23859C12.9988 1.07535 10.9477 0.453655 8.83855 0.501332C6.7294 0.549008 4.72253 1.26243 3.23058 2.49491C1.73863 3.72739 0.875013 5.38524 0.817299 7.12758C0.759585 8.86992 1.51216 10.5643 2.92029 11.8623C4.32842 13.1604 6.28506 13.9634 8.38789 14.1063C10.4907 14.2492 12.5799 13.7211 14.2259 12.6305L17.5992 15.4172C17.6844 15.4882 17.7858 15.5445 17.8975 15.583C18.0092 15.6214 18.129 15.6412 18.25 15.6412C18.371 15.6412 18.4909 15.6214 18.6026 15.583C18.7143 15.5445 18.8157 15.4882 18.9009 15.4172C19.0661 15.276 19.1584 15.0873 19.1584 14.8909C19.1584 14.6945 19.0661 14.5058 18.9009 14.3646V14.3646ZM9.08337 12.6305C7.81427 12.6305 6.57367 12.3197 5.51846 11.7372C4.46324 11.1548 3.6408 10.3269 3.15514 9.35832C2.66948 8.38974 2.54241 7.32394 2.79 6.2957C3.03758 5.26746 3.64871 4.32296 4.5461 3.58164C5.44349 2.84033 6.58683 2.33548 7.83154 2.13095C9.07625 1.92642 10.3664 2.03139 11.5389 2.43259C12.7114 2.83379 13.7136 3.5132 14.4186 4.3849C15.1237 5.2566 15.5 6.28144 15.5 7.32982C15.5 8.73566 14.824 10.0839 13.6206 11.078C12.4173 12.0721 10.7852 12.6305 9.08337 12.6305V12.6305Z" fill="white"/>
</svg>
